<svg width="21" height="23" viewBox="0 0 21 23" fill="none" xmlns="http://www.w3.org/2000/svg">
<path d="M8.87868 1.12887C9.18895 0.827496 9.59975 0.659576 10.0267 0.659576C10.4537 0.659576 10.8645 0.827496 11.1748 1.12887L19.2697 8.99039C19.7711 9.47626 20.0535 10.1544 20.0535 10.8618V20.4247C20.0535 21.1077 19.7894 21.7628 19.3193 22.2457C18.8492 22.7287 18.2116 23 17.5468 23H14.2045C13.8752 23 13.5491 22.9333 13.2449 22.8038C12.9407 22.6743 12.6642 22.4844 12.4315 22.2451C12.1987 22.0058 12.0141 21.7217 11.8882 21.409C11.7623 21.0964 11.6976 20.7613 11.6979 20.423V16.1308C11.6979 15.9032 11.6098 15.6848 11.4531 15.5238C11.2964 15.3628 11.0839 15.2724 10.8623 15.2724H9.19118C8.96957 15.2724 8.75704 15.3628 8.60034 15.5238C8.44365 15.6848 8.35561 15.9032 8.35561 16.1308V20.423C8.35561 21.106 8.09152 21.761 7.62142 22.244C7.15133 22.727 6.51374 22.9983 5.84893 22.9983H2.50668C1.84187 22.9983 1.20429 22.727 0.734191 22.244C0.264096 21.761 0 21.106 0 20.423V10.8601C0 10.1527 0.284091 9.47454 0.785428 8.98867L8.87868 1.12543V1.12887ZM10.0267 2.37531L1.93182 10.2385C1.84964 10.3186 1.78415 10.415 1.73934 10.5218C1.69453 10.6286 1.67132 10.7437 1.67112 10.8601V20.423C1.67112 20.6507 1.75916 20.869 1.91585 21.03C2.07255 21.191 2.28508 21.2814 2.50668 21.2814H5.84893C6.07054 21.2814 6.28306 21.191 6.43976 21.03C6.59646 20.869 6.68449 20.6507 6.68449 20.423V16.1308C6.68449 15.4478 6.94859 14.7928 7.41868 14.3098C7.88878 13.8269 8.52636 13.5555 9.19118 13.5555H10.8623C11.5271 13.5555 12.1647 13.8269 12.6348 14.3098C13.1049 14.7928 13.369 15.4478 13.369 16.1308V20.423C13.369 20.6507 13.457 20.869 13.6137 21.03C13.7704 21.191 13.9829 21.2814 14.2045 21.2814H17.5468C17.7684 21.2814 17.9809 21.191 18.1376 21.03C18.2943 20.869 18.3824 20.6507 18.3824 20.423V10.8601C18.3824 10.7434 18.3593 10.628 18.3145 10.5209C18.2696 10.4137 18.204 10.3171 18.1217 10.2368L10.0267 2.37531Z" fill="black"/>
<path d="M8.87868 1.1289C9.18895 0.827527 9.59975 0.659607 10.0267 0.659607C10.4537 0.659607 10.8645 0.827527 11.1748 1.1289L19.2697 8.99042C19.7711 9.47629 20.0535 10.1545 20.0535 10.8618V20.4247C20.0535 21.1077 19.7894 21.7628 19.3193 22.2457C18.8492 22.7287 18.2116 23 17.5468 23H14.2045C13.8752 23 13.5491 22.9334 13.2449 22.8038C12.9407 22.6743 12.6642 22.4845 12.4315 22.2451C12.1987 22.0058 12.0141 21.7217 11.8882 21.4091C11.7623 21.0964 11.6976 20.7614 11.6979 20.423V16.1309C11.6979 15.9032 11.6098 15.6848 11.4531 15.5239C11.2964 15.3629 11.0839 15.2724 10.8623 15.2724H9.19118C8.96957 15.2724 8.75704 15.3629 8.60034 15.5239C8.44365 15.6848 8.35561 15.9032 8.35561 16.1309V20.423C8.35561 21.106 8.09152 21.7611 7.62142 22.244C7.15133 22.727 6.51374 22.9983 5.84893 22.9983H2.50668C1.84187 22.9983 1.20429 22.727 0.734191 22.244C0.264096 21.7611 0 21.106 0 20.423V10.8601C0 10.1527 0.284091 9.47458 0.785428 8.9887L8.87868 1.12547V1.1289ZM10.0267 2.37534L1.93182 10.2386C1.84964 10.3186 1.78415 10.415 1.73934 10.5218C1.69453 10.6287 1.67132 10.7437 1.67112 10.8601V20.423C1.67112 20.6507 1.75916 20.869 1.91585 21.03C2.07255 21.191 2.28508 21.2815 2.50668 21.2815H5.84893C6.07054 21.2815 6.28306 21.191 6.43976 21.03C6.59646 20.869 6.68449 20.6507 6.68449 20.423V16.1309C6.68449 15.4478 6.94859 14.7928 7.41868 14.3098C7.88878 13.8269 8.52636 13.5556 9.19118 13.5556H10.8623C11.5271 13.5556 12.1647 13.8269 12.6348 14.3098C13.1049 14.7928 13.369 15.4478 13.369 16.1309V20.423C13.369 20.6507 13.457 20.869 13.6137 21.03C13.7704 21.191 13.9829 21.2815 14.2045 21.2815H17.5468C17.7684 21.2815 17.9809 21.191 18.1376 21.03C18.2943 20.869 18.3824 20.6507 18.3824 20.423V10.8601C18.3824 10.7435 18.3593 10.628 18.3145 10.5209C18.2696 10.4137 18.204 10.3171 18.1217 10.2369L10.0267 2.37534Z" fill="black"/>
</svg>
