<svg width="20" height="21" viewBox="0 0 20 21" fill="none" xmlns="http://www.w3.org/2000/svg">
<path d="M13.5616 5.3901C13.3927 7.73625 11.6659 9.65017 9.77019 9.65017C7.87451 9.65017 6.1447 7.73669 5.97883 5.3901C5.80649 2.94944 7.48676 1.13004 9.77019 1.13004C12.0536 1.13004 13.7339 2.99382 13.5616 5.3901Z" stroke="black" stroke-width="2" stroke-linecap="round" stroke-linejoin="round"/>
<path d="M9.77009 12.4902C6.02181 12.4902 2.21753 14.6202 1.51354 18.6407C1.42866 19.1253 1.69492 19.5903 2.18737 19.5903H17.3528C17.8457 19.5903 18.112 19.1253 18.0271 18.6407C17.3227 14.6202 13.5184 12.4902 9.77009 12.4902Z" stroke="black" stroke-width="2" stroke-miterlimit="10"/>
<path d="M13.5616 5.3901C13.3927 7.73625 11.6659 9.65017 9.77019 9.65017C7.87451 9.65017 6.1447 7.73669 5.97883 5.3901C5.80649 2.94944 7.48676 1.13004 9.77019 1.13004C12.0536 1.13004 13.7339 2.99382 13.5616 5.3901Z" stroke="black" stroke-width="2" stroke-linecap="round" stroke-linejoin="round"/>
<path d="M9.77009 12.4902C6.02181 12.4902 2.21753 14.6202 1.51354 18.6407C1.42866 19.1253 1.69492 19.5903 2.18737 19.5903H17.3528C17.8457 19.5903 18.112 19.1253 18.0271 18.6407C17.3227 14.6202 13.5184 12.4902 9.77009 12.4902Z" stroke="black" stroke-width="2" stroke-miterlimit="10"/>
</svg>
